<mxfile host="app.diagrams.net" agent="Mozilla/5.0 (Windows NT 10.0; Win64; x64) AppleWebKit/537.36 (KHTML, like Gecko) Chrome/131.0.0.0 Safari/537.36 Edg/131.0.0.0" version="25.0.1">
  <diagram name="第 1 页" id="OTrbT37XHcaXpMnJoWDX">
    <mxGraphModel dx="1365" dy="749" grid="1" gridSize="10" guides="1" tooltips="1" connect="1" arrows="1" fold="1" page="1" pageScale="1" pageWidth="827" pageHeight="1169" math="0" shadow="0">
      <root>
        <mxCell id="0" />
        <mxCell id="1" parent="0" />
        <mxCell id="mVOo5B1COMKmpI_bgh3E-20" style="edgeStyle=orthogonalEdgeStyle;rounded=0;orthogonalLoop=1;jettySize=auto;html=1;exitX=1;exitY=0.5;exitDx=0;exitDy=0;entryX=0;entryY=0.5;entryDx=0;entryDy=0;" edge="1" parent="1" source="mVOo5B1COMKmpI_bgh3E-2" target="mVOo5B1COMKmpI_bgh3E-3">
          <mxGeometry relative="1" as="geometry" />
        </mxCell>
        <mxCell id="mVOo5B1COMKmpI_bgh3E-21" style="edgeStyle=orthogonalEdgeStyle;rounded=0;orthogonalLoop=1;jettySize=auto;html=1;exitX=1;exitY=0.5;exitDx=0;exitDy=0;entryX=0;entryY=0.5;entryDx=0;entryDy=0;" edge="1" parent="1" source="mVOo5B1COMKmpI_bgh3E-2" target="mVOo5B1COMKmpI_bgh3E-4">
          <mxGeometry relative="1" as="geometry" />
        </mxCell>
        <mxCell id="mVOo5B1COMKmpI_bgh3E-22" style="edgeStyle=orthogonalEdgeStyle;rounded=0;orthogonalLoop=1;jettySize=auto;html=1;exitX=1;exitY=0.5;exitDx=0;exitDy=0;entryX=0;entryY=0.5;entryDx=0;entryDy=0;" edge="1" parent="1" source="mVOo5B1COMKmpI_bgh3E-2" target="mVOo5B1COMKmpI_bgh3E-5">
          <mxGeometry relative="1" as="geometry" />
        </mxCell>
        <mxCell id="mVOo5B1COMKmpI_bgh3E-23" style="edgeStyle=orthogonalEdgeStyle;rounded=0;orthogonalLoop=1;jettySize=auto;html=1;exitX=1;exitY=0.5;exitDx=0;exitDy=0;entryX=0;entryY=0.5;entryDx=0;entryDy=0;" edge="1" parent="1" source="mVOo5B1COMKmpI_bgh3E-2" target="mVOo5B1COMKmpI_bgh3E-6">
          <mxGeometry relative="1" as="geometry" />
        </mxCell>
        <mxCell id="mVOo5B1COMKmpI_bgh3E-24" value="段落分割" style="edgeLabel;html=1;align=center;verticalAlign=middle;resizable=0;points=[];" vertex="1" connectable="0" parent="mVOo5B1COMKmpI_bgh3E-23">
          <mxGeometry x="-0.78" y="-1" relative="1" as="geometry">
            <mxPoint y="-11" as="offset" />
          </mxGeometry>
        </mxCell>
        <mxCell id="mVOo5B1COMKmpI_bgh3E-2" value="长文本" style="rounded=0;whiteSpace=wrap;html=1;" vertex="1" parent="1">
          <mxGeometry x="41" y="240" width="120" height="60" as="geometry" />
        </mxCell>
        <mxCell id="mVOo5B1COMKmpI_bgh3E-25" value="" style="edgeStyle=orthogonalEdgeStyle;rounded=0;orthogonalLoop=1;jettySize=auto;html=1;" edge="1" parent="1" source="mVOo5B1COMKmpI_bgh3E-3" target="mVOo5B1COMKmpI_bgh3E-7">
          <mxGeometry relative="1" as="geometry" />
        </mxCell>
        <mxCell id="mVOo5B1COMKmpI_bgh3E-29" value="文本转语音" style="edgeLabel;html=1;align=center;verticalAlign=middle;resizable=0;points=[];" vertex="1" connectable="0" parent="mVOo5B1COMKmpI_bgh3E-25">
          <mxGeometry x="-0.3749" y="1" relative="1" as="geometry">
            <mxPoint x="15" y="-9" as="offset" />
          </mxGeometry>
        </mxCell>
        <mxCell id="mVOo5B1COMKmpI_bgh3E-30" value="角色1" style="edgeLabel;html=1;align=center;verticalAlign=middle;resizable=0;points=[];" vertex="1" connectable="0" parent="mVOo5B1COMKmpI_bgh3E-25">
          <mxGeometry x="-0.0297" relative="1" as="geometry">
            <mxPoint y="9" as="offset" />
          </mxGeometry>
        </mxCell>
        <mxCell id="mVOo5B1COMKmpI_bgh3E-3" value="段落1" style="rounded=0;whiteSpace=wrap;html=1;" vertex="1" parent="1">
          <mxGeometry x="280" y="120" width="120" height="60" as="geometry" />
        </mxCell>
        <mxCell id="mVOo5B1COMKmpI_bgh3E-4" value="段落2" style="rounded=0;whiteSpace=wrap;html=1;" vertex="1" parent="1">
          <mxGeometry x="280" y="200" width="120" height="60" as="geometry" />
        </mxCell>
        <mxCell id="mVOo5B1COMKmpI_bgh3E-5" value="段落3" style="rounded=0;whiteSpace=wrap;html=1;" vertex="1" parent="1">
          <mxGeometry x="280" y="280" width="120" height="60" as="geometry" />
        </mxCell>
        <mxCell id="mVOo5B1COMKmpI_bgh3E-6" value="段落n" style="rounded=0;whiteSpace=wrap;html=1;" vertex="1" parent="1">
          <mxGeometry x="280" y="360" width="120" height="60" as="geometry" />
        </mxCell>
        <mxCell id="mVOo5B1COMKmpI_bgh3E-7" value="语音1" style="rounded=0;whiteSpace=wrap;html=1;" vertex="1" parent="1">
          <mxGeometry x="480" y="120" width="120" height="60" as="geometry" />
        </mxCell>
        <mxCell id="mVOo5B1COMKmpI_bgh3E-8" value="语音2" style="rounded=0;whiteSpace=wrap;html=1;" vertex="1" parent="1">
          <mxGeometry x="480" y="200" width="120" height="60" as="geometry" />
        </mxCell>
        <mxCell id="mVOo5B1COMKmpI_bgh3E-9" value="语音3" style="rounded=0;whiteSpace=wrap;html=1;" vertex="1" parent="1">
          <mxGeometry x="480" y="280" width="120" height="60" as="geometry" />
        </mxCell>
        <mxCell id="mVOo5B1COMKmpI_bgh3E-10" value="语音n" style="rounded=0;whiteSpace=wrap;html=1;" vertex="1" parent="1">
          <mxGeometry x="480" y="360" width="120" height="60" as="geometry" />
        </mxCell>
        <mxCell id="mVOo5B1COMKmpI_bgh3E-55" style="edgeStyle=orthogonalEdgeStyle;rounded=0;orthogonalLoop=1;jettySize=auto;html=1;exitX=1;exitY=0.5;exitDx=0;exitDy=0;entryX=0;entryY=0.5;entryDx=0;entryDy=0;" edge="1" parent="1" source="mVOo5B1COMKmpI_bgh3E-15" target="mVOo5B1COMKmpI_bgh3E-19">
          <mxGeometry relative="1" as="geometry" />
        </mxCell>
        <mxCell id="mVOo5B1COMKmpI_bgh3E-15" value="视频1" style="rounded=0;whiteSpace=wrap;html=1;" vertex="1" parent="1">
          <mxGeometry x="680" y="120" width="120" height="60" as="geometry" />
        </mxCell>
        <mxCell id="mVOo5B1COMKmpI_bgh3E-56" style="edgeStyle=orthogonalEdgeStyle;rounded=0;orthogonalLoop=1;jettySize=auto;html=1;exitX=1;exitY=0.5;exitDx=0;exitDy=0;entryX=0;entryY=0.5;entryDx=0;entryDy=0;" edge="1" parent="1" source="mVOo5B1COMKmpI_bgh3E-16" target="mVOo5B1COMKmpI_bgh3E-19">
          <mxGeometry relative="1" as="geometry" />
        </mxCell>
        <mxCell id="mVOo5B1COMKmpI_bgh3E-16" value="视频2" style="rounded=0;whiteSpace=wrap;html=1;" vertex="1" parent="1">
          <mxGeometry x="680" y="200" width="120" height="60" as="geometry" />
        </mxCell>
        <mxCell id="mVOo5B1COMKmpI_bgh3E-57" style="edgeStyle=orthogonalEdgeStyle;rounded=0;orthogonalLoop=1;jettySize=auto;html=1;exitX=1;exitY=0.5;exitDx=0;exitDy=0;entryX=0;entryY=0.5;entryDx=0;entryDy=0;" edge="1" parent="1" source="mVOo5B1COMKmpI_bgh3E-17" target="mVOo5B1COMKmpI_bgh3E-19">
          <mxGeometry relative="1" as="geometry" />
        </mxCell>
        <mxCell id="mVOo5B1COMKmpI_bgh3E-17" value="视频3" style="rounded=0;whiteSpace=wrap;html=1;" vertex="1" parent="1">
          <mxGeometry x="680" y="280" width="120" height="60" as="geometry" />
        </mxCell>
        <mxCell id="mVOo5B1COMKmpI_bgh3E-58" style="edgeStyle=orthogonalEdgeStyle;rounded=0;orthogonalLoop=1;jettySize=auto;html=1;exitX=1;exitY=0.5;exitDx=0;exitDy=0;entryX=0;entryY=0.5;entryDx=0;entryDy=0;" edge="1" parent="1" source="mVOo5B1COMKmpI_bgh3E-18" target="mVOo5B1COMKmpI_bgh3E-19">
          <mxGeometry relative="1" as="geometry" />
        </mxCell>
        <mxCell id="mVOo5B1COMKmpI_bgh3E-59" value="视频拼接" style="edgeLabel;html=1;align=center;verticalAlign=middle;resizable=0;points=[];" vertex="1" connectable="0" parent="mVOo5B1COMKmpI_bgh3E-58">
          <mxGeometry x="0.6839" relative="1" as="geometry">
            <mxPoint x="4" y="-9" as="offset" />
          </mxGeometry>
        </mxCell>
        <mxCell id="mVOo5B1COMKmpI_bgh3E-18" value="视频n" style="rounded=0;whiteSpace=wrap;html=1;" vertex="1" parent="1">
          <mxGeometry x="680" y="360" width="120" height="60" as="geometry" />
        </mxCell>
        <mxCell id="mVOo5B1COMKmpI_bgh3E-19" value="总视频" style="rounded=0;whiteSpace=wrap;html=1;" vertex="1" parent="1">
          <mxGeometry x="920" y="240" width="120" height="60" as="geometry" />
        </mxCell>
        <mxCell id="mVOo5B1COMKmpI_bgh3E-31" value="" style="edgeStyle=orthogonalEdgeStyle;rounded=0;orthogonalLoop=1;jettySize=auto;html=1;entryX=0;entryY=0.5;entryDx=0;entryDy=0;exitX=1;exitY=0.5;exitDx=0;exitDy=0;" edge="1" parent="1" source="mVOo5B1COMKmpI_bgh3E-4" target="mVOo5B1COMKmpI_bgh3E-8">
          <mxGeometry relative="1" as="geometry">
            <mxPoint x="400" y="230" as="sourcePoint" />
            <mxPoint x="480" y="230" as="targetPoint" />
          </mxGeometry>
        </mxCell>
        <mxCell id="mVOo5B1COMKmpI_bgh3E-32" value="文本转语音" style="edgeLabel;html=1;align=center;verticalAlign=middle;resizable=0;points=[];" vertex="1" connectable="0" parent="mVOo5B1COMKmpI_bgh3E-31">
          <mxGeometry x="-0.3749" y="1" relative="1" as="geometry">
            <mxPoint x="15" y="-9" as="offset" />
          </mxGeometry>
        </mxCell>
        <mxCell id="mVOo5B1COMKmpI_bgh3E-33" value="角色2" style="edgeLabel;html=1;align=center;verticalAlign=middle;resizable=0;points=[];" vertex="1" connectable="0" parent="mVOo5B1COMKmpI_bgh3E-31">
          <mxGeometry x="-0.0297" relative="1" as="geometry">
            <mxPoint y="9" as="offset" />
          </mxGeometry>
        </mxCell>
        <mxCell id="mVOo5B1COMKmpI_bgh3E-34" value="" style="edgeStyle=orthogonalEdgeStyle;rounded=0;orthogonalLoop=1;jettySize=auto;html=1;" edge="1" parent="1">
          <mxGeometry relative="1" as="geometry">
            <mxPoint x="400" y="310" as="sourcePoint" />
            <mxPoint x="480" y="310" as="targetPoint" />
          </mxGeometry>
        </mxCell>
        <mxCell id="mVOo5B1COMKmpI_bgh3E-35" value="文本转语音" style="edgeLabel;html=1;align=center;verticalAlign=middle;resizable=0;points=[];" vertex="1" connectable="0" parent="mVOo5B1COMKmpI_bgh3E-34">
          <mxGeometry x="-0.3749" y="1" relative="1" as="geometry">
            <mxPoint x="15" y="-9" as="offset" />
          </mxGeometry>
        </mxCell>
        <mxCell id="mVOo5B1COMKmpI_bgh3E-36" value="角色1" style="edgeLabel;html=1;align=center;verticalAlign=middle;resizable=0;points=[];" vertex="1" connectable="0" parent="mVOo5B1COMKmpI_bgh3E-34">
          <mxGeometry x="-0.0297" relative="1" as="geometry">
            <mxPoint y="9" as="offset" />
          </mxGeometry>
        </mxCell>
        <mxCell id="mVOo5B1COMKmpI_bgh3E-37" value="" style="edgeStyle=orthogonalEdgeStyle;rounded=0;orthogonalLoop=1;jettySize=auto;html=1;" edge="1" parent="1">
          <mxGeometry relative="1" as="geometry">
            <mxPoint x="400" y="390" as="sourcePoint" />
            <mxPoint x="480" y="390" as="targetPoint" />
          </mxGeometry>
        </mxCell>
        <mxCell id="mVOo5B1COMKmpI_bgh3E-38" value="文本转语音" style="edgeLabel;html=1;align=center;verticalAlign=middle;resizable=0;points=[];" vertex="1" connectable="0" parent="mVOo5B1COMKmpI_bgh3E-37">
          <mxGeometry x="-0.3749" y="1" relative="1" as="geometry">
            <mxPoint x="15" y="-9" as="offset" />
          </mxGeometry>
        </mxCell>
        <mxCell id="mVOo5B1COMKmpI_bgh3E-39" value="角色" style="edgeLabel;html=1;align=center;verticalAlign=middle;resizable=0;points=[];" vertex="1" connectable="0" parent="mVOo5B1COMKmpI_bgh3E-37">
          <mxGeometry x="-0.0297" relative="1" as="geometry">
            <mxPoint y="9" as="offset" />
          </mxGeometry>
        </mxCell>
        <mxCell id="mVOo5B1COMKmpI_bgh3E-42" value="" style="edgeStyle=orthogonalEdgeStyle;rounded=0;orthogonalLoop=1;jettySize=auto;html=1;exitX=1;exitY=0.5;exitDx=0;exitDy=0;entryX=0;entryY=0.5;entryDx=0;entryDy=0;" edge="1" parent="1" source="mVOo5B1COMKmpI_bgh3E-7" target="mVOo5B1COMKmpI_bgh3E-15">
          <mxGeometry relative="1" as="geometry">
            <mxPoint x="600" y="150" as="sourcePoint" />
            <mxPoint x="680" y="150" as="targetPoint" />
          </mxGeometry>
        </mxCell>
        <mxCell id="mVOo5B1COMKmpI_bgh3E-43" value="语音转视频" style="edgeLabel;html=1;align=center;verticalAlign=middle;resizable=0;points=[];" vertex="1" connectable="0" parent="mVOo5B1COMKmpI_bgh3E-42">
          <mxGeometry x="-0.3749" y="1" relative="1" as="geometry">
            <mxPoint x="15" y="-9" as="offset" />
          </mxGeometry>
        </mxCell>
        <mxCell id="mVOo5B1COMKmpI_bgh3E-44" value="角色1" style="edgeLabel;html=1;align=center;verticalAlign=middle;resizable=0;points=[];" vertex="1" connectable="0" parent="mVOo5B1COMKmpI_bgh3E-42">
          <mxGeometry x="-0.0297" relative="1" as="geometry">
            <mxPoint y="9" as="offset" />
          </mxGeometry>
        </mxCell>
        <mxCell id="mVOo5B1COMKmpI_bgh3E-45" value="" style="edgeStyle=orthogonalEdgeStyle;rounded=0;orthogonalLoop=1;jettySize=auto;html=1;entryX=0;entryY=0.5;entryDx=0;entryDy=0;exitX=1;exitY=0.5;exitDx=0;exitDy=0;" edge="1" parent="1" source="mVOo5B1COMKmpI_bgh3E-8" target="mVOo5B1COMKmpI_bgh3E-16">
          <mxGeometry relative="1" as="geometry">
            <mxPoint x="600" y="230" as="sourcePoint" />
            <mxPoint x="680" y="230" as="targetPoint" />
          </mxGeometry>
        </mxCell>
        <mxCell id="mVOo5B1COMKmpI_bgh3E-46" value="语音转视频" style="edgeLabel;html=1;align=center;verticalAlign=middle;resizable=0;points=[];" vertex="1" connectable="0" parent="mVOo5B1COMKmpI_bgh3E-45">
          <mxGeometry x="-0.3749" y="1" relative="1" as="geometry">
            <mxPoint x="15" y="-9" as="offset" />
          </mxGeometry>
        </mxCell>
        <mxCell id="mVOo5B1COMKmpI_bgh3E-47" value="角色2" style="edgeLabel;html=1;align=center;verticalAlign=middle;resizable=0;points=[];" vertex="1" connectable="0" parent="mVOo5B1COMKmpI_bgh3E-45">
          <mxGeometry x="-0.0297" relative="1" as="geometry">
            <mxPoint y="9" as="offset" />
          </mxGeometry>
        </mxCell>
        <mxCell id="mVOo5B1COMKmpI_bgh3E-48" value="" style="edgeStyle=orthogonalEdgeStyle;rounded=0;orthogonalLoop=1;jettySize=auto;html=1;exitX=1;exitY=0.5;exitDx=0;exitDy=0;entryX=0;entryY=0.5;entryDx=0;entryDy=0;" edge="1" parent="1" source="mVOo5B1COMKmpI_bgh3E-9" target="mVOo5B1COMKmpI_bgh3E-17">
          <mxGeometry relative="1" as="geometry">
            <mxPoint x="600" y="310" as="sourcePoint" />
            <mxPoint x="680" y="310" as="targetPoint" />
          </mxGeometry>
        </mxCell>
        <mxCell id="mVOo5B1COMKmpI_bgh3E-49" value="语音转视频" style="edgeLabel;html=1;align=center;verticalAlign=middle;resizable=0;points=[];" vertex="1" connectable="0" parent="mVOo5B1COMKmpI_bgh3E-48">
          <mxGeometry x="-0.3749" y="1" relative="1" as="geometry">
            <mxPoint x="15" y="-9" as="offset" />
          </mxGeometry>
        </mxCell>
        <mxCell id="mVOo5B1COMKmpI_bgh3E-50" value="角色1" style="edgeLabel;html=1;align=center;verticalAlign=middle;resizable=0;points=[];" vertex="1" connectable="0" parent="mVOo5B1COMKmpI_bgh3E-48">
          <mxGeometry x="-0.0297" relative="1" as="geometry">
            <mxPoint y="9" as="offset" />
          </mxGeometry>
        </mxCell>
        <mxCell id="mVOo5B1COMKmpI_bgh3E-51" value="" style="edgeStyle=orthogonalEdgeStyle;rounded=0;orthogonalLoop=1;jettySize=auto;html=1;exitX=1;exitY=0.5;exitDx=0;exitDy=0;entryX=0;entryY=0.5;entryDx=0;entryDy=0;" edge="1" parent="1" source="mVOo5B1COMKmpI_bgh3E-10" target="mVOo5B1COMKmpI_bgh3E-18">
          <mxGeometry relative="1" as="geometry">
            <mxPoint x="600" y="390" as="sourcePoint" />
            <mxPoint x="680" y="390" as="targetPoint" />
          </mxGeometry>
        </mxCell>
        <mxCell id="mVOo5B1COMKmpI_bgh3E-52" value="语音转视频" style="edgeLabel;html=1;align=center;verticalAlign=middle;resizable=0;points=[];" vertex="1" connectable="0" parent="mVOo5B1COMKmpI_bgh3E-51">
          <mxGeometry x="-0.3749" y="1" relative="1" as="geometry">
            <mxPoint x="15" y="-9" as="offset" />
          </mxGeometry>
        </mxCell>
        <mxCell id="mVOo5B1COMKmpI_bgh3E-53" value="角色" style="edgeLabel;html=1;align=center;verticalAlign=middle;resizable=0;points=[];" vertex="1" connectable="0" parent="mVOo5B1COMKmpI_bgh3E-51">
          <mxGeometry x="-0.0297" relative="1" as="geometry">
            <mxPoint y="9" as="offset" />
          </mxGeometry>
        </mxCell>
      </root>
    </mxGraphModel>
  </diagram>
</mxfile>
